<svg width="149" height="31" viewBox="0 0 149 31" fill="none" xmlns="http://www.w3.org/2000/svg">
<path fill-rule="evenodd" clip-rule="evenodd" d="M3.46192e-07 7.56664C-1.01406e-05 16.9926 -5.35946e-06 23.8317 0.0404064 30.7113C4.32983 28.4314 8.31304 26.3764 12.2946 24.2822V19.7077C10.3491 20.6511 6.99344 22.6818 4.37529 23.8317C4.2894 23.8317 4.32876 11.3297 4.32983 9.851C7.31231 8.29104 11.23 6.23382 14.482 4.60733C16.6795 5.68912 22.7441 8.7908 24.7683 9.851C24.7646 11.2572 24.7683 12.5745 24.7646 14.4261C22.1968 13.0587 15.406 9.64182 14.552 9.19167L14.6206 23.1241C18.0819 24.9439 23.0761 27.5236 29.1319 30.7312C29.1994 30.7312 29.1748 26.6705 29.1748 26.189C25.8655 24.4543 22.485 22.8001 19.2394 20.9689C18.6153 20.6165 19.0121 16.2059 19.0212 16.2059C23.393 18.3847 24.7646 19.0504 28.96 21.3616C28.96 17.5979 29.1083 9.19167 29.1083 7.56749C25.5848 5.68912 18.4738 1.99725 14.5542 0C10.8312 1.8762 3.41526 5.76476 3.46192e-07 7.56664Z" fill="#FF0000"/>
<path d="M35.3875 21.6618C35.472 21.6618 35.5565 21.5766 35.641 21.4061C35.7255 21.2356 35.7677 20.9555 35.7677 20.5657V11.7972C35.7677 11.4075 35.7255 11.1335 35.641 10.9751C35.5565 10.8046 35.472 10.7133 35.3875 10.7011H45.9605V11.2491L46.3226 13.3682C46.0209 13.2343 45.4898 13.0942 44.7294 12.9481C43.9691 12.7897 43.0518 12.7106 41.9776 12.7106H39.2981C38.936 12.7106 38.7187 12.741 38.6463 12.8019C38.586 12.8506 38.5558 13.0029 38.5558 13.2586V14.6104C38.5558 14.8784 38.586 15.0367 38.6463 15.0854C38.7187 15.1341 38.93 15.1585 39.28 15.1585H41.887C42.5871 15.1585 43.1483 15.1219 43.5708 15.0489C44.0053 14.9636 44.2889 14.8784 44.4217 14.7931C44.3734 15.0245 44.3191 15.2924 44.2587 15.5969C44.1984 15.9014 44.1501 16.1936 44.1139 16.4738C44.0777 16.7539 44.0596 16.9853 44.0596 17.1679H39.28C38.93 17.1679 38.7187 17.1923 38.6463 17.241C38.586 17.2775 38.5558 17.4359 38.5558 17.716V19.0678C38.5558 19.3479 38.586 19.5123 38.6463 19.561C38.7067 19.6097 38.9179 19.6341 39.28 19.6341H44.1682C44.8682 19.6341 45.4295 19.5549 45.8519 19.3966C46.2864 19.2261 46.5701 19.0617 46.7028 18.9034L46.3407 21.0955V21.6618H35.3875Z" fill="black"/>
<path d="M49.4242 21.6618C49.5087 21.6618 49.5931 21.5766 49.6776 21.4061C49.7621 21.2356 49.8044 20.9555 49.8044 20.5657V10.1531C49.8044 9.76336 49.7621 9.48326 49.6776 9.31276C49.6052 9.14226 49.5268 9.05701 49.4423 9.05701C50.2389 9.05701 50.8846 9.02047 51.3795 8.9474C51.8864 8.86215 52.2183 8.7769 52.3752 8.69165V20.5657C52.3752 20.9555 52.4114 21.2356 52.4838 21.4061C52.5683 21.5766 52.6528 21.6618 52.7373 21.6618H49.4242Z" fill="black"/>
<path d="M60.5621 21.8445C59.6086 21.8445 58.812 21.7471 58.1723 21.5522C57.5447 21.3452 57.0438 21.0529 56.6696 20.6754C56.2955 20.2856 56.03 19.8168 55.873 19.2687C55.7161 18.7207 55.6377 18.0996 55.6377 17.4054C55.6377 16.0292 56.0179 14.9393 56.7783 14.1355C57.5387 13.3317 58.7034 12.9298 60.2724 12.9298C61.1897 12.9298 61.932 13.0577 62.4993 13.3134C63.0786 13.5692 63.5192 13.9102 63.8209 14.3364C64.1227 14.7627 64.3279 15.2376 64.4365 15.7613C64.5572 16.2728 64.6175 16.7904 64.6175 17.3141V18.1727C64.6175 18.1361 64.4486 18.0996 64.1106 18.0631C63.7847 18.0143 63.2295 17.99 62.445 17.99H58.2447C58.2447 18.6598 58.4439 19.1652 58.8422 19.5062C59.2526 19.835 59.9164 19.9994 60.8337 19.9994C61.6061 19.9994 62.2941 19.9081 62.8976 19.7254C63.5132 19.5306 63.9597 19.3479 64.2373 19.1774V19.7254L64.4184 21.1138C64.1891 21.2721 63.7485 21.4365 63.0967 21.607C62.445 21.7653 61.6001 21.8445 60.5621 21.8445ZM58.9146 16.4189H62.0467C62.0467 16.151 61.9863 15.8892 61.8656 15.6334C61.757 15.3777 61.576 15.1706 61.3225 15.0123C61.069 14.8418 60.719 14.7566 60.2724 14.7566C59.8259 14.7566 59.4638 14.8236 59.1862 14.9575C58.9206 15.0915 58.7215 15.2559 58.5887 15.4508C58.468 15.6456 58.4077 15.8466 58.4077 16.0536C58.4077 16.1754 58.4439 16.2667 58.5163 16.3276C58.5887 16.3885 58.7215 16.4189 58.9146 16.4189Z" fill="black"/>
<path d="M72.2469 21.8445C70.9916 21.8445 70.0019 21.6496 69.2777 21.2599C68.5656 20.8702 68.0647 20.3404 67.7751 19.6706C67.4854 19.0008 67.3406 18.2457 67.3406 17.4054C67.3406 15.9196 67.7389 14.8053 68.5355 14.0624C69.3441 13.3195 70.5209 12.9481 72.0658 12.9481C72.8745 12.9481 73.6108 13.009 74.2746 13.1307C74.9505 13.2525 75.4453 13.3682 75.7592 13.4778V14.0259L76.1212 15.9805C75.8557 15.7248 75.3729 15.4629 74.6729 15.195C73.9849 14.9149 73.1581 14.7748 72.1926 14.7748C71.6736 14.7748 71.2391 14.8723 70.889 15.0671C70.5511 15.2498 70.2976 15.536 70.1287 15.9257C69.9717 16.3154 69.8933 16.8148 69.8933 17.4237C69.8933 18.0204 69.9838 18.5076 70.1649 18.8851C70.3459 19.2626 70.6416 19.5367 71.052 19.7072C71.4624 19.8777 72.0055 19.9629 72.6814 19.9629C73.5383 19.9629 74.2444 19.8533 74.7996 19.6341C75.3669 19.4027 75.7471 19.1774 75.9402 18.9582V19.5062L76.1212 20.9676C75.8919 21.1625 75.4393 21.3574 74.7634 21.5522C74.0996 21.7471 73.2607 21.8445 72.2469 21.8445Z" fill="black"/>
<path d="M82.6513 21.8445C81.8185 21.8445 81.215 21.6679 80.8409 21.3147C80.4667 20.9494 80.2796 20.3587 80.2796 19.5427V14.9393H78.6502V13.1125C79.2054 13.1125 79.6399 13.0455 79.9537 12.9115C80.2676 12.7654 80.4908 12.5157 80.6236 12.1625C80.7564 11.8094 80.8228 11.3161 80.8228 10.6828H82.8505V13.1125H85.9463C85.8619 13.356 85.7774 13.6605 85.6929 14.0259C85.6205 14.379 85.5842 14.6835 85.5842 14.9393H82.8505V18.538C82.8505 19.0982 82.8927 19.4819 82.9772 19.6889C83.0617 19.8959 83.2608 19.9994 83.5746 19.9994C83.7798 19.9994 84.0031 19.9264 84.2445 19.7802C84.498 19.6341 84.7394 19.4575 84.9687 19.2505C85.2101 19.0312 85.4092 18.8242 85.5661 18.6294V19.1957L85.7472 20.9676C85.6024 21.0894 85.3851 21.2234 85.0954 21.3695C84.8058 21.5035 84.4497 21.6131 84.0273 21.6984C83.6169 21.7958 83.1582 21.8445 82.6513 21.8445Z" fill="black"/>
<path d="M88.3654 21.6618C88.4499 21.6618 88.5283 21.5766 88.6008 21.4061C88.6853 21.2356 88.7275 20.9555 88.7275 20.5657V14.3912C88.7275 14.0015 88.6853 13.7275 88.6008 13.5692C88.5283 13.3987 88.4499 13.3073 88.3654 13.2951C88.8965 13.2951 89.4396 13.2586 89.9948 13.1855C90.55 13.1003 90.9845 13.015 91.2983 12.9298V13.6605L91.2621 13.9711L91.2983 14.0076C91.3828 13.8736 91.5156 13.7275 91.6966 13.5692C91.8898 13.3987 92.1311 13.2525 92.4208 13.1307C92.7226 12.9968 93.0726 12.9298 93.4709 12.9298C94.0623 12.9298 94.5873 13.015 95.046 13.1855C95.5046 13.3439 95.8305 13.5083 96.0236 13.6788L95.4805 16.1267V16.6747C95.2994 16.4189 95.052 16.1571 94.7382 15.8892C94.4365 15.6213 94.0985 15.3959 93.7243 15.2133C93.3623 15.0306 92.9881 14.9393 92.6019 14.9393C92.1674 14.9393 91.8415 15.0976 91.6242 15.4142C91.407 15.7309 91.2983 16.2302 91.2983 16.9122V20.5657C91.2983 20.9555 91.3345 21.2356 91.407 21.4061C91.4915 21.5766 91.5759 21.6618 91.6604 21.6618H88.3654Z" fill="black"/>
<path d="M102.506 21.8445C101.299 21.8445 100.351 21.6496 99.6632 21.2599C98.9873 20.8702 98.5105 20.3404 98.2329 19.6706C97.9674 19.0008 97.8346 18.2457 97.8346 17.4054C97.8346 16.5529 97.9734 15.7918 98.251 15.1219C98.5407 14.4521 99.0235 13.9223 99.6994 13.5326C100.375 13.1307 101.311 12.9298 102.506 12.9298C103.7 12.9298 104.636 13.1307 105.312 13.5326C105.988 13.9223 106.464 14.4521 106.742 15.1219C107.032 15.7918 107.177 16.5529 107.177 17.4054C107.177 18.2457 107.038 19.0008 106.76 19.6706C106.495 20.3404 106.024 20.8702 105.348 21.2599C104.672 21.6496 103.725 21.8445 102.506 21.8445ZM102.506 19.9994C103.013 19.9994 103.417 19.9264 103.719 19.7802C104.032 19.6219 104.256 19.354 104.388 18.9764C104.533 18.5989 104.606 18.0752 104.606 17.4054C104.606 16.7356 104.533 16.2119 104.388 15.8344C104.256 15.4447 104.032 15.1706 103.719 15.0123C103.417 14.8418 103.013 14.7566 102.506 14.7566C101.999 14.7566 101.588 14.8418 101.274 15.0123C100.973 15.1828 100.749 15.4629 100.605 15.8526C100.472 16.2424 100.405 16.766 100.405 17.4237C100.405 18.0691 100.472 18.5806 100.605 18.9582C100.749 19.3357 100.973 19.6036 101.274 19.762C101.588 19.9203 101.999 19.9994 102.506 19.9994Z" fill="black"/>
<path d="M109.968 21.6618C110.052 21.6618 110.131 21.5766 110.203 21.4061C110.288 21.2356 110.33 20.9555 110.33 20.5657V14.3912C110.33 14.0015 110.288 13.7275 110.203 13.5692C110.131 13.3987 110.052 13.3073 109.968 13.2951C110.499 13.2951 111.042 13.2586 111.597 13.1855C112.152 13.1003 112.587 13.015 112.901 12.9298V14.0441L112.864 14.2816L112.901 14.3181C112.937 14.2329 113.052 14.0807 113.245 13.8615C113.438 13.6422 113.715 13.4352 114.077 13.2403C114.44 13.0333 114.886 12.9298 115.417 12.9298C116.54 12.9298 117.397 13.2525 117.988 13.898C118.592 14.5435 118.893 15.5543 118.893 16.9304V20.5657C118.893 20.9555 118.93 21.2356 119.002 21.4061C119.086 21.5766 119.171 21.6618 119.255 21.6618H115.96C116.045 21.6618 116.123 21.5766 116.196 21.4061C116.28 21.2356 116.322 20.9555 116.322 20.5657V16.9853C116.322 16.4129 116.262 15.9683 116.141 15.6517C116.021 15.3229 115.852 15.0915 115.634 14.9575C115.429 14.8236 115.188 14.7566 114.91 14.7566C114.572 14.7566 114.246 14.8418 113.933 15.0123C113.631 15.1706 113.383 15.4264 113.19 15.7796C112.997 16.1206 112.901 16.5773 112.901 17.1497V20.5657C112.901 20.9555 112.937 21.2356 113.009 21.4061C113.094 21.5766 113.178 21.6618 113.263 21.6618H109.968Z" fill="black"/>
<path d="M122.183 21.6618C122.268 21.6618 122.352 21.5766 122.437 21.4061C122.521 21.2356 122.564 20.9555 122.564 20.5657V14.2085C122.564 13.8188 122.521 13.5387 122.437 13.3682C122.364 13.1977 122.286 13.1125 122.201 13.1125H125.134V20.5657C125.134 20.9555 125.171 21.2356 125.243 21.4061C125.328 21.5766 125.412 21.6618 125.496 21.6618H122.183ZM123.65 11.7241C123.203 11.7241 122.847 11.6023 122.582 11.3588C122.316 11.1152 122.183 10.7803 122.183 10.354C122.183 9.92777 122.31 9.59286 122.564 9.34929C122.829 9.10572 123.191 8.98394 123.65 8.98394C124.108 8.98394 124.465 9.10572 124.718 9.34929C124.984 9.59286 125.116 9.92777 125.116 10.354C125.116 10.7803 124.984 11.1152 124.718 11.3588C124.465 11.6023 124.108 11.7241 123.65 11.7241Z" fill="black"/>
<path d="M133.235 21.8445C131.98 21.8445 130.99 21.6496 130.266 21.2599C129.554 20.8702 129.053 20.3404 128.763 19.6706C128.474 19.0008 128.329 18.2457 128.329 17.4054C128.329 15.9196 128.727 14.8053 129.524 14.0624C130.332 13.3195 131.509 12.9481 133.054 12.9481C133.863 12.9481 134.599 13.009 135.263 13.1307C135.939 13.2525 136.433 13.3682 136.747 13.4778V14.0259L137.109 15.9805C136.844 15.7248 136.361 15.4629 135.661 15.195C134.973 14.9149 134.146 14.7748 133.181 14.7748C132.662 14.7748 132.227 14.8723 131.877 15.0671C131.539 15.2498 131.286 15.536 131.117 15.9257C130.96 16.3154 130.881 16.8148 130.881 17.4237C130.881 18.0204 130.972 18.5076 131.153 18.8851C131.334 19.2626 131.63 19.5367 132.04 19.7072C132.451 19.8777 132.994 19.9629 133.67 19.9629C134.526 19.9629 135.233 19.8533 135.788 19.6341C136.355 19.4027 136.735 19.1774 136.928 18.9582V19.5062L137.109 20.9676C136.88 21.1625 136.427 21.3574 135.752 21.5522C135.088 21.7471 134.249 21.8445 133.235 21.8445Z" fill="black"/>
<path d="M144.617 21.8445C143.543 21.8445 142.638 21.7836 141.901 21.6618C141.165 21.54 140.658 21.4182 140.381 21.2965V20.7484L140 18.9582C140.314 19.1896 140.9 19.421 141.757 19.6524C142.614 19.8837 143.664 19.9994 144.907 19.9994C145.281 19.9994 145.577 19.9751 145.794 19.9264C146.023 19.8777 146.186 19.7985 146.283 19.6889C146.379 19.5793 146.428 19.4392 146.428 19.2687C146.428 19.0617 146.349 18.9034 146.192 18.7938C146.047 18.6842 145.782 18.5989 145.396 18.538C145.009 18.4649 144.448 18.3797 143.712 18.2823C142.783 18.1605 142.046 17.99 141.503 17.7708C140.96 17.5394 140.574 17.2471 140.344 16.8939C140.127 16.5286 140.019 16.084 140.019 15.5604C140.019 15.0732 140.133 14.6348 140.363 14.2451C140.604 13.8432 141.014 13.5265 141.594 13.2951C142.185 13.0516 143.006 12.9298 144.056 12.9298C145.046 12.9298 145.915 12.9907 146.663 13.1125C147.411 13.2343 147.948 13.356 148.274 13.4778V14.0259L148.636 15.6334C148.359 15.4508 147.816 15.262 147.007 15.0671C146.198 14.8723 145.172 14.7748 143.929 14.7748C143.446 14.7748 143.102 14.8236 142.897 14.921C142.692 15.0184 142.589 15.1889 142.589 15.4325C142.589 15.5543 142.62 15.6578 142.68 15.743C142.752 15.8283 142.885 15.9074 143.078 15.9805C143.271 16.0536 143.549 16.1267 143.911 16.1997C144.273 16.2606 144.75 16.3276 145.341 16.4007C146.367 16.5346 147.14 16.7234 147.659 16.967C148.178 17.1984 148.528 17.4907 148.709 17.8438C148.89 18.1848 148.98 18.5989 148.98 19.0861C148.98 19.7072 148.823 20.2247 148.51 20.6388C148.208 21.0407 147.731 21.3452 147.079 21.5522C146.44 21.7471 145.619 21.8445 144.617 21.8445Z" fill="black"/>
<path d="M117.892 28.0622V27.8341H118.227V25.8669H117.892V25.6388H119.093C119.362 25.6388 119.568 25.6904 119.708 25.7937C119.852 25.8942 119.923 26.0434 119.923 26.2414C119.923 26.3734 119.889 26.4853 119.82 26.5772C119.754 26.669 119.667 26.7336 119.558 26.7709C119.667 26.7967 119.757 26.8397 119.829 26.9C119.903 26.9574 119.959 27.0277 119.997 27.1109C120.034 27.1913 120.053 27.2802 120.053 27.3778C120.053 27.4926 120.025 27.6031 119.971 27.7093C119.916 27.8126 119.824 27.8972 119.695 27.9632C119.569 28.0292 119.398 28.0622 119.183 28.0622H117.892ZM118.58 27.8341H119.123C119.327 27.8341 119.473 27.7925 119.562 27.7093C119.651 27.626 119.695 27.5112 119.695 27.3649C119.695 27.23 119.648 27.121 119.553 27.0377C119.459 26.9516 119.311 26.9086 119.11 26.9086H118.58V27.8341ZM118.58 26.6719H119.071C119.249 26.6719 119.377 26.6345 119.454 26.5599C119.535 26.4853 119.575 26.3834 119.575 26.2543C119.575 26.1108 119.529 26.0104 119.437 25.953C119.345 25.8956 119.197 25.8669 118.994 25.8669H118.58V26.6719Z" fill="black"/>
<path d="M121 28.7467V28.4884H121.194C121.268 28.4884 121.329 28.4826 121.374 28.4712C121.42 28.4597 121.459 28.4339 121.491 28.3937C121.525 28.3535 121.557 28.2904 121.585 28.2043L121.676 27.9546H121.542L120.914 26.5987H120.6V26.3705H121.486V26.5987H121.237L121.745 27.748L122.197 26.5987H121.904V26.3705H122.786V26.5987H122.511L121.882 28.1612C121.831 28.2932 121.782 28.4023 121.736 28.4884C121.693 28.5745 121.633 28.639 121.555 28.6821C121.478 28.7251 121.366 28.7467 121.219 28.7467H121Z" fill="black"/>
<path d="M126.089 28.1053C125.974 28.1053 125.867 28.0881 125.766 28.0536C125.669 28.0163 125.582 27.9661 125.508 27.903C125.433 27.837 125.373 27.7609 125.327 27.6748H125.383V28.0622H125.103V27.2444H125.362C125.373 27.362 125.409 27.4668 125.469 27.5586C125.529 27.6504 125.611 27.7236 125.715 27.7781C125.818 27.8298 125.938 27.8556 126.076 27.8556C126.225 27.8556 126.342 27.8212 126.425 27.7523C126.508 27.6806 126.55 27.5787 126.55 27.4467C126.55 27.3405 126.531 27.2587 126.494 27.2013C126.456 27.141 126.395 27.0951 126.309 27.0636C126.222 27.0291 126.108 27.0004 125.964 26.9775L125.861 26.9603C125.628 26.9201 125.442 26.844 125.301 26.7321C125.161 26.6173 125.09 26.4581 125.09 26.2543C125.09 26.1108 125.122 25.9903 125.185 25.8927C125.248 25.7952 125.337 25.7205 125.452 25.6689C125.567 25.6172 125.7 25.5914 125.852 25.5914C126.022 25.5914 126.171 25.6287 126.3 25.7033C126.429 25.7779 126.517 25.8798 126.563 26.0089H126.472V25.6388H126.748V26.3232H126.494C126.482 26.2543 126.458 26.1826 126.42 26.108C126.383 26.0333 126.321 25.9702 126.235 25.9186C126.149 25.8669 126.027 25.8411 125.869 25.8411C125.72 25.8411 125.605 25.8769 125.525 25.9487C125.445 26.0176 125.405 26.108 125.405 26.2199C125.405 26.3433 125.449 26.438 125.538 26.504C125.627 26.57 125.756 26.6188 125.925 26.6503L126.024 26.6675C126.214 26.6991 126.37 26.7422 126.494 26.7967C126.617 26.8512 126.709 26.9258 126.769 27.0205C126.832 27.1152 126.864 27.2401 126.864 27.395C126.864 27.5213 126.834 27.6389 126.773 27.748C126.713 27.8542 126.626 27.9403 126.511 28.0063C126.396 28.0723 126.255 28.1053 126.089 28.1053Z" fill="black"/>
<path d="M128.14 28.1096C127.965 28.1096 127.824 28.0608 127.718 27.9632C127.612 27.8657 127.559 27.7466 127.559 27.6059C127.559 27.4768 127.589 27.3735 127.649 27.296C127.712 27.2185 127.796 27.1626 127.899 27.1281C128.002 27.0937 128.116 27.0765 128.239 27.0765C128.337 27.0765 128.436 27.0851 128.536 27.1023C128.639 27.1167 128.74 27.1367 128.837 27.1626L128.708 27.1841V26.956C128.708 26.8211 128.672 26.7221 128.601 26.6589C128.529 26.5958 128.431 26.5642 128.308 26.5642C128.227 26.5642 128.133 26.5786 128.024 26.6073C127.918 26.6331 127.819 26.6704 127.727 26.7192L127.632 26.5126C127.732 26.4494 127.846 26.4035 127.972 26.3748C128.098 26.3433 128.212 26.3275 128.312 26.3275C128.461 26.3275 128.589 26.3519 128.695 26.4007C128.801 26.4494 128.882 26.5198 128.936 26.6116C128.994 26.7005 129.022 26.8053 129.022 26.9258V27.8341H129.289V28.0622H128.743L128.717 27.8212H128.837C128.725 27.9187 128.616 27.9919 128.51 28.0407C128.404 28.0866 128.281 28.1096 128.14 28.1096ZM128.187 27.89C128.293 27.89 128.4 27.8671 128.506 27.8212C128.612 27.7753 128.723 27.7049 128.837 27.6102L128.708 27.7652V27.2659L128.807 27.3434C128.733 27.3204 128.648 27.3018 128.553 27.2874C128.458 27.2731 128.361 27.2659 128.26 27.2659C128.16 27.2659 128.068 27.2888 127.985 27.3348C127.902 27.3778 127.86 27.4625 127.86 27.5887C127.86 27.6748 127.889 27.7466 127.946 27.804C128.004 27.8613 128.084 27.89 128.187 27.89Z" fill="black"/>
<path d="M129.875 28.0622V27.8341H130.211V26.5987H129.879V26.3705H130.211V26.0089C130.211 25.9056 130.228 25.8152 130.262 25.7378C130.3 25.6603 130.356 25.6014 130.43 25.5613C130.508 25.5182 130.604 25.4967 130.719 25.4967C130.836 25.4967 130.941 25.5254 131.033 25.5828C131.125 25.6402 131.176 25.7435 131.188 25.8927L130.942 25.9616C130.931 25.887 130.909 25.8282 130.878 25.7851C130.849 25.7421 130.8 25.7205 130.732 25.7205C130.668 25.7205 130.618 25.7449 130.581 25.7937C130.546 25.8396 130.529 25.9128 130.529 26.0133V26.3705H131.046V26.5987H130.529V27.8341H130.964V28.0622H129.875Z" fill="black"/>
<path d="M132.391 28.1096C132.236 28.1096 132.092 28.0751 131.96 28.0063C131.831 27.9345 131.726 27.8312 131.646 27.6963C131.566 27.5615 131.525 27.4008 131.525 27.2142C131.525 27.022 131.563 26.8613 131.637 26.7321C131.715 26.6001 131.817 26.4997 131.943 26.4308C132.069 26.3619 132.207 26.3275 132.356 26.3275C132.477 26.3275 132.596 26.3504 132.713 26.3964C132.834 26.4394 132.94 26.5011 133.032 26.5815L132.929 26.6202V25.8195H132.627V25.5957H133.247V27.8341H133.514V28.0622H132.929V27.8384L133.028 27.8556C132.944 27.936 132.85 27.9991 132.744 28.045C132.64 28.0881 132.523 28.1096 132.391 28.1096ZM132.459 27.8685C132.571 27.8685 132.675 27.847 132.769 27.804C132.867 27.7609 132.956 27.7035 133.036 27.6318L132.929 27.7781V26.6589L133.036 26.8139C132.947 26.7364 132.847 26.6762 132.735 26.6331C132.626 26.5901 132.521 26.5685 132.421 26.5685C132.312 26.5685 132.214 26.5944 132.128 26.646C132.045 26.6977 131.979 26.7737 131.93 26.8742C131.881 26.9717 131.857 27.0937 131.857 27.2401C131.857 27.3749 131.884 27.4897 131.939 27.5844C131.993 27.6763 132.065 27.7466 132.154 27.7953C132.246 27.8441 132.348 27.8685 132.459 27.8685Z" fill="black"/>
<path d="M134.705 28.1096C134.53 28.1096 134.389 28.0608 134.283 27.9632C134.177 27.8657 134.124 27.7466 134.124 27.6059C134.124 27.4768 134.154 27.3735 134.214 27.296C134.278 27.2185 134.361 27.1626 134.464 27.1281C134.567 27.0937 134.681 27.0765 134.804 27.0765C134.902 27.0765 135.001 27.0851 135.101 27.1023C135.204 27.1167 135.305 27.1367 135.402 27.1626L135.273 27.1841V26.956C135.273 26.8211 135.237 26.7221 135.166 26.6589C135.094 26.5958 134.996 26.5642 134.873 26.5642C134.793 26.5642 134.698 26.5786 134.589 26.6073C134.483 26.6331 134.384 26.6704 134.292 26.7192L134.197 26.5126C134.298 26.4494 134.411 26.4035 134.537 26.3748C134.663 26.3433 134.777 26.3275 134.877 26.3275C135.027 26.3275 135.154 26.3519 135.26 26.4007C135.367 26.4494 135.447 26.5198 135.501 26.6116C135.559 26.7005 135.588 26.8053 135.588 26.9258V27.8341H135.854V28.0622H135.308L135.282 27.8212H135.402C135.291 27.9187 135.181 27.9919 135.075 28.0407C134.969 28.0866 134.846 28.1096 134.705 28.1096ZM134.752 27.89C134.859 27.89 134.965 27.8671 135.071 27.8212C135.177 27.7753 135.288 27.7049 135.402 27.6102L135.273 27.7652V27.2659L135.372 27.3434C135.298 27.3204 135.213 27.3018 135.118 27.2874C135.024 27.2731 134.926 27.2659 134.826 27.2659C134.725 27.2659 134.633 27.2888 134.55 27.3348C134.467 27.3778 134.425 27.4625 134.425 27.5887C134.425 27.6748 134.454 27.7466 134.511 27.804C134.569 27.8613 134.649 27.89 134.752 27.89Z" fill="black"/>
<path d="M136.414 28.0622V27.8341H136.741V26.5987H136.414V26.3705H137.056V26.8742L136.995 26.8656C137.027 26.7364 137.067 26.6345 137.116 26.5599C137.168 26.4853 137.225 26.4322 137.288 26.4007C137.354 26.3662 137.422 26.349 137.49 26.349C137.548 26.349 137.605 26.3562 137.663 26.3705C137.72 26.3849 137.777 26.4064 137.835 26.4351L137.757 26.7235C137.708 26.6919 137.66 26.669 137.611 26.6546C137.562 26.6374 137.512 26.6288 137.46 26.6288C137.351 26.6288 137.257 26.6747 137.176 26.7666C137.099 26.8555 137.06 26.9846 137.06 27.154L137.056 27.8341H137.357V28.0622H136.414Z" fill="black"/>
<path d="M141.375 28.1053C141.134 28.1053 140.939 28.0651 140.79 27.9847C140.643 27.9044 140.536 27.7953 140.467 27.6576C140.398 27.517 140.363 27.3591 140.363 27.1841V25.8669H140.041V25.6388H141.035V25.8669H140.712V27.2314C140.712 27.3577 140.738 27.4682 140.79 27.5629C140.844 27.6547 140.922 27.725 141.022 27.7738C141.122 27.8226 141.243 27.847 141.384 27.847C141.536 27.847 141.665 27.8226 141.771 27.7738C141.877 27.725 141.958 27.6547 142.012 27.5629C142.069 27.4682 142.098 27.3563 142.098 27.2271V25.8669H141.78V25.6388H142.722V25.8669H142.395V27.2142C142.395 27.4151 142.351 27.5816 142.262 27.7136C142.176 27.8427 142.057 27.9403 141.904 28.0063C141.752 28.0723 141.576 28.1053 141.375 28.1053Z" fill="black"/>
<path d="M143.269 28.0622V27.8341H143.583V25.8195H143.277V25.5957H143.901V27.8341H144.177V28.0622H143.269Z" fill="black"/>
<path d="M145.601 28.1096C145.446 28.1096 145.302 28.0751 145.17 28.0063C145.041 27.9345 144.936 27.8312 144.856 27.6963C144.776 27.5615 144.735 27.4008 144.735 27.2142C144.735 27.022 144.773 26.8613 144.847 26.7321C144.925 26.6001 145.027 26.4997 145.153 26.4308C145.279 26.3619 145.417 26.3275 145.566 26.3275C145.687 26.3275 145.806 26.3504 145.924 26.3964C146.044 26.4394 146.15 26.5011 146.242 26.5815L146.139 26.6202V25.8195H145.837V25.5957H146.457V27.8341H146.724V28.0622H146.139V27.8384L146.238 27.8556C146.155 27.936 146.06 27.9991 145.954 28.045C145.85 28.0881 145.733 28.1096 145.601 28.1096ZM145.67 27.8685C145.781 27.8685 145.885 27.847 145.98 27.804C146.077 27.7609 146.166 27.7035 146.246 27.6318L146.139 27.7781V26.6589L146.246 26.8139C146.157 26.7364 146.057 26.6762 145.945 26.6331C145.836 26.5901 145.731 26.5685 145.631 26.5685C145.522 26.5685 145.424 26.5944 145.338 26.646C145.255 26.6977 145.189 26.7737 145.14 26.8742C145.091 26.9717 145.067 27.0937 145.067 27.2401C145.067 27.3749 145.094 27.4897 145.149 27.5844C145.203 27.6763 145.275 27.7466 145.364 27.7953C145.456 27.8441 145.558 27.8685 145.67 27.8685Z" fill="black"/>
<path d="M148.229 28.1139C148.052 28.1139 147.889 28.0766 147.743 28.002C147.6 27.9274 147.485 27.8226 147.399 27.6877C147.315 27.5529 147.274 27.3965 147.274 27.2185C147.274 27.0349 147.314 26.877 147.394 26.745C147.475 26.6102 147.582 26.5068 147.717 26.4351C147.852 26.3605 148.003 26.3232 148.169 26.3232C148.341 26.3232 148.489 26.3591 148.613 26.4308C148.739 26.5025 148.835 26.6044 148.901 26.7364C148.967 26.8684 149 27.0234 149 27.2013V27.2831H147.554L147.558 27.0851H148.686C148.686 26.9732 148.663 26.8785 148.617 26.801C148.574 26.7206 148.514 26.6604 148.436 26.6202C148.359 26.5772 148.27 26.5556 148.169 26.5556C148.063 26.5556 147.967 26.5815 147.881 26.6331C147.795 26.6819 147.726 26.7536 147.674 26.8483C147.625 26.9402 147.601 27.0521 147.601 27.1841C147.601 27.3247 147.627 27.4467 147.678 27.55C147.73 27.6504 147.802 27.7293 147.894 27.7867C147.988 27.8413 148.096 27.8685 148.217 27.8685C148.346 27.8685 148.465 27.8427 148.574 27.791C148.683 27.7394 148.778 27.6748 148.858 27.5973L148.97 27.791C148.892 27.88 148.792 27.956 148.669 28.0192C148.545 28.0823 148.399 28.1139 148.229 28.1139Z" fill="black"/>
</svg>
