<svg width="139" height="31" viewBox="0 0 139 31" fill="none" xmlns="http://www.w3.org/2000/svg">
<path fill-rule="evenodd" clip-rule="evenodd" d="M3.91524e-07 6.57293C-1.14684e-05 14.5492 -6.06125e-06 20.3364 0.0456974 26.1579C4.8968 24.2287 9.40158 22.4898 13.9045 20.7176V16.8467C11.7042 17.645 7.90919 19.3633 4.9482 20.3364C4.85107 20.3364 4.89559 9.75721 4.89679 8.50595C8.26982 7.18592 12.7005 5.4451 16.3783 4.06876C18.8636 4.98417 25.7223 7.60881 28.0115 8.50595C28.0073 9.69586 28.0115 10.8106 28.0073 12.3774C25.1033 11.2203 17.4233 8.32895 16.4575 7.94802L16.5351 19.7376C20.4496 21.2776 26.0978 23.4604 32.9465 26.1748C33.0229 26.1748 32.9951 22.7386 32.9951 22.3312C29.2524 20.8632 25.4292 19.4634 21.7587 17.9139C21.0529 17.6157 21.5016 13.8834 21.5119 13.8834C26.4562 15.7271 28.0073 16.2905 32.7522 18.2462C32.7522 15.0613 32.9199 7.94802 32.9199 6.57364C28.9349 4.98417 20.8929 1.86011 16.4599 0.170044C12.2495 1.75768 3.86247 5.04818 3.91524e-07 6.57293Z" fill="white"/>
<path d="M36.3876 20.6243C36.4721 20.6243 36.5565 20.5361 36.641 20.3598C36.7255 20.1834 36.7678 19.8936 36.7678 19.4905V10.4195C36.7678 10.0164 36.7255 9.73291 36.641 9.56913C36.5565 9.39275 36.4721 9.29826 36.3876 9.28566H46.9606V9.8526L47.3227 12.0447C47.021 11.9062 46.4899 11.7613 45.7295 11.6101C44.9691 11.4463 44.0518 11.3644 42.9776 11.3644H40.2981C39.9361 11.3644 39.7188 11.3959 39.6464 11.4589C39.586 11.5093 39.5559 11.6668 39.5559 11.9314V13.3298C39.5559 13.607 39.586 13.7707 39.6464 13.8211C39.7188 13.8715 39.93 13.8967 40.28 13.8967H42.8871C43.5871 13.8967 44.1484 13.8589 44.5708 13.7833C45.0053 13.6951 45.289 13.607 45.4217 13.5188C45.3734 13.7581 45.3191 14.0353 45.2588 14.3503C45.1984 14.6652 45.1502 14.9676 45.1139 15.2574C45.0777 15.5471 45.0596 15.7865 45.0596 15.9755H40.28C39.93 15.9755 39.7188 16.0007 39.6464 16.0511C39.586 16.0889 39.5559 16.2526 39.5559 16.5424V17.9408C39.5559 18.2306 39.586 18.4007 39.6464 18.4511C39.7067 18.5015 39.918 18.5267 40.28 18.5267H45.1683C45.8683 18.5267 46.4295 18.4448 46.852 18.281C47.2865 18.1046 47.5701 17.9345 47.7029 17.7708L47.3408 20.0385V20.6243H36.3876Z" fill="white"/>
<path d="M50.4242 20.6243C50.5087 20.6243 50.5932 20.5361 50.6777 20.3598C50.7622 20.1834 50.8044 19.8936 50.8044 19.4905V8.71873C50.8044 8.31558 50.7622 8.02581 50.6777 7.84943C50.6053 7.67305 50.5268 7.58486 50.4423 7.58486C51.2389 7.58486 51.8847 7.54707 52.3795 7.47148C52.8864 7.38329 53.2184 7.2951 53.3753 7.20691V19.4905C53.3753 19.8936 53.4115 20.1834 53.4839 20.3598C53.5684 20.5361 53.6529 20.6243 53.7374 20.6243H50.4242Z" fill="white"/>
<path d="M61.5622 20.8133C60.6087 20.8133 59.8121 20.7125 59.1724 20.5109C58.5448 20.2968 58.0439 19.9944 57.6697 19.6038C57.2955 19.2007 57.03 18.7157 56.8731 18.1487C56.7162 17.5818 56.6378 16.9393 56.6378 16.2211C56.6378 14.7975 57.0179 13.6699 57.7783 12.8384C58.5387 12.0069 59.7034 11.5912 61.2725 11.5912C62.1898 11.5912 62.9321 11.7235 63.4994 11.988C64.0787 12.2526 64.5192 12.6054 64.821 13.0463C65.1227 13.4873 65.3279 13.9786 65.4365 14.5203C65.5572 15.0495 65.6176 15.5849 65.6176 16.1267V17.0149C65.6176 16.9771 65.4486 16.9393 65.1107 16.9015C64.7848 16.8511 64.2296 16.8259 63.445 16.8259H59.2448C59.2448 17.5188 59.4439 18.0416 59.8422 18.3944C60.2526 18.7345 60.9165 18.9046 61.8337 18.9046C62.6062 18.9046 63.2942 18.8101 63.8977 18.6212C64.5132 18.4196 64.9598 18.2306 65.2374 18.0542V18.6212L65.4184 20.0574C65.1891 20.2212 64.7486 20.3913 64.0968 20.5676C63.445 20.7314 62.6002 20.8133 61.5622 20.8133ZM59.9147 15.2007H63.0467C63.0467 14.9235 62.9864 14.6526 62.8657 14.3881C62.7571 14.1235 62.576 13.9093 62.3226 13.7455C62.0691 13.5692 61.7191 13.481 61.2725 13.481C60.8259 13.481 60.4638 13.5503 60.1862 13.6888C59.9207 13.8274 59.7216 13.9975 59.5888 14.1991C59.4681 14.4007 59.4077 14.6085 59.4077 14.8227C59.4077 14.9487 59.444 15.0432 59.5164 15.1062C59.5888 15.1692 59.7216 15.2007 59.9147 15.2007Z" fill="white"/>
<path d="M73.2469 20.8133C71.9917 20.8133 71.002 20.6117 70.2778 20.2086C69.5657 19.8054 69.0648 19.2574 68.7751 18.5645C68.4855 17.8716 68.3406 17.0904 68.3406 16.2211C68.3406 14.6841 68.7389 13.5314 69.5355 12.7629C70.3442 11.9943 71.521 11.6101 73.0659 11.6101C73.8746 11.6101 74.6108 11.6731 75.2746 11.7991C75.9506 11.9251 76.4454 12.0447 76.7592 12.1581V12.7251L77.1213 14.7471C76.8558 14.4825 76.373 14.2117 75.6729 13.9345C74.985 13.6447 74.1582 13.4999 73.1926 13.4999C72.6736 13.4999 72.2391 13.6007 71.8891 13.8022C71.5512 13.9912 71.2977 14.2873 71.1287 14.6904C70.9718 15.0936 70.8934 15.6101 70.8934 16.24C70.8934 16.8574 70.9839 17.3613 71.1649 17.7519C71.346 18.1424 71.6417 18.4259 72.052 18.6023C72.4624 18.7786 73.0055 18.8668 73.6814 18.8668C74.5384 18.8668 75.2445 18.7534 75.7997 18.5267C76.367 18.2873 76.7471 18.0542 76.9403 17.8275V18.3944L77.1213 19.9062C76.892 20.1078 76.4394 20.3094 75.7635 20.5109C75.0996 20.7125 74.2608 20.8133 73.2469 20.8133Z" fill="white"/>
<path d="M83.6514 20.8133C82.8186 20.8133 82.2151 20.6306 81.8409 20.2653C81.4668 19.8873 81.2797 19.2763 81.2797 18.4322V13.6699H79.6503V11.7802C80.2055 11.7802 80.64 11.7109 80.9538 11.5723C81.2676 11.4211 81.4909 11.1628 81.6237 10.7975C81.7564 10.4321 81.8228 9.92189 81.8228 9.26677H83.8505V11.7802H86.9464C86.8619 12.0321 86.7774 12.3471 86.6929 12.7251C86.6205 13.0904 86.5843 13.4054 86.5843 13.6699H83.8505V17.3928C83.8505 17.9723 83.8928 18.3692 83.9773 18.5834C84.0617 18.7975 84.2609 18.9046 84.5747 18.9046C84.7799 18.9046 85.0032 18.829 85.2446 18.6779C85.498 18.5267 85.7394 18.344 85.9688 18.1298C86.2101 17.903 86.4093 17.6889 86.5662 17.4873V18.0731L86.7472 19.9062C86.6024 20.0322 86.3852 20.1708 86.0955 20.322C85.8058 20.4605 85.4498 20.5739 85.0273 20.6621C84.617 20.7629 84.1583 20.8133 83.6514 20.8133Z" fill="white"/>
<path d="M89.3655 20.6243C89.45 20.6243 89.5284 20.5361 89.6008 20.3598C89.6853 20.1834 89.7276 19.8936 89.7276 19.4905V13.103C89.7276 12.6999 89.6853 12.4164 89.6008 12.2526C89.5284 12.0762 89.45 11.9817 89.3655 11.9691C89.8965 11.9691 90.4397 11.9314 90.9949 11.8558C91.5501 11.7676 91.9846 11.6794 92.2984 11.5912V12.3471L92.2622 12.6684L92.2984 12.7062C92.3829 12.5676 92.5157 12.4164 92.6967 12.2526C92.8898 12.0762 93.1312 11.9251 93.4209 11.7991C93.7226 11.6605 94.0726 11.5912 94.4709 11.5912C95.0624 11.5912 95.5874 11.6794 96.046 11.8558C96.5047 12.0195 96.8306 12.1896 97.0237 12.366L96.4805 14.8983V15.4652C96.2995 15.2007 96.0521 14.9298 95.7383 14.6526C95.4365 14.3755 95.0986 14.1424 94.7244 13.9534C94.3623 13.7644 93.9882 13.6699 93.6019 13.6699C93.1674 13.6699 92.8415 13.8337 92.6243 14.1613C92.407 14.4888 92.2984 15.0054 92.2984 15.7109V19.4905C92.2984 19.8936 92.3346 20.1834 92.407 20.3598C92.4915 20.5361 92.576 20.6243 92.6605 20.6243H89.3655Z" fill="white"/>
<path d="M103.506 20.8133C102.299 20.8133 101.351 20.6117 100.663 20.2086C99.9873 19.8054 99.5106 19.2574 99.233 18.5645C98.9675 17.8716 98.8347 17.0904 98.8347 16.2211C98.8347 15.3392 98.9735 14.5518 99.2511 13.8589C99.5408 13.166 100.024 12.618 100.699 12.2148C101.375 11.7991 102.311 11.5912 103.506 11.5912C104.701 11.5912 105.636 11.7991 106.312 12.2148C106.988 12.618 107.465 13.166 107.742 13.8589C108.032 14.5518 108.177 15.3392 108.177 16.2211C108.177 17.0904 108.038 17.8716 107.76 18.5645C107.495 19.2574 107.024 19.8054 106.348 20.2086C105.672 20.6117 104.725 20.8133 103.506 20.8133ZM103.506 18.9046C104.013 18.9046 104.417 18.829 104.719 18.6779C105.032 18.5141 105.256 18.2369 105.389 17.8464C105.533 17.4558 105.606 16.9141 105.606 16.2211C105.606 15.5282 105.533 14.9865 105.389 14.5959C105.256 14.1928 105.032 13.9093 104.719 13.7455C104.417 13.5692 104.013 13.481 103.506 13.481C102.999 13.481 102.588 13.5692 102.275 13.7455C101.973 13.9219 101.75 14.2117 101.605 14.6148C101.472 15.018 101.406 15.5597 101.406 16.24C101.406 16.9078 101.472 17.4369 101.605 17.8275C101.75 18.218 101.973 18.4952 102.275 18.659C102.588 18.8227 102.999 18.9046 103.506 18.9046Z" fill="white"/>
<path d="M110.968 20.6243C111.052 20.6243 111.131 20.5361 111.203 20.3598C111.288 20.1834 111.33 19.8936 111.33 19.4905V13.103C111.33 12.6999 111.288 12.4164 111.203 12.2526C111.131 12.0762 111.052 11.9817 110.968 11.9691C111.499 11.9691 112.042 11.9314 112.597 11.8558C113.152 11.7676 113.587 11.6794 113.901 11.5912V12.744L113.865 12.9896L113.901 13.0274C113.937 12.9392 114.052 12.7818 114.245 12.555C114.438 12.3282 114.715 12.114 115.078 11.9125C115.44 11.6983 115.886 11.5912 116.417 11.5912C117.54 11.5912 118.397 11.9251 118.988 12.5928C119.592 13.2605 119.893 14.3062 119.893 15.7298V19.4905C119.893 19.8936 119.93 20.1834 120.002 20.3598C120.086 20.5361 120.171 20.6243 120.255 20.6243H116.96C117.045 20.6243 117.123 20.5361 117.196 20.3598C117.28 20.1834 117.323 19.8936 117.323 19.4905V15.7865C117.323 15.1944 117.262 14.7345 117.141 14.407C117.021 14.0668 116.852 13.8274 116.635 13.6888C116.429 13.5503 116.188 13.481 115.91 13.481C115.572 13.481 115.247 13.5692 114.933 13.7455C114.631 13.9093 114.384 14.1739 114.19 14.5392C113.997 14.892 113.901 15.3644 113.901 15.9566V19.4905C113.901 19.8936 113.937 20.1834 114.009 20.3598C114.094 20.5361 114.178 20.6243 114.263 20.6243H110.968Z" fill="white"/>
<path d="M123.183 20.6243C123.268 20.6243 123.352 20.5361 123.437 20.3598C123.521 20.1834 123.564 19.8936 123.564 19.4905V12.914C123.564 12.5109 123.521 12.2211 123.437 12.0447C123.364 11.8684 123.286 11.7802 123.202 11.7802H126.134V19.4905C126.134 19.8936 126.171 20.1834 126.243 20.3598C126.328 20.5361 126.412 20.6243 126.497 20.6243H123.183ZM124.65 10.3439C124.203 10.3439 123.847 10.218 123.582 9.96598C123.316 9.71401 123.183 9.36755 123.183 8.92661C123.183 8.48566 123.31 8.1392 123.564 7.88723C123.829 7.63526 124.191 7.50927 124.65 7.50927C125.109 7.50927 125.465 7.63526 125.718 7.88723C125.984 8.1392 126.116 8.48566 126.116 8.92661C126.116 9.36755 125.984 9.71401 125.718 9.96598C125.465 10.218 125.109 10.3439 124.65 10.3439Z" fill="white"/>
<path d="M134.235 20.8133C132.98 20.8133 131.99 20.6117 131.266 20.2086C130.554 19.8054 130.053 19.2574 129.763 18.5645C129.474 17.8716 129.329 17.0904 129.329 16.2211C129.329 14.6841 129.727 13.5314 130.524 12.7629C131.332 11.9943 132.509 11.6101 134.054 11.6101C134.863 11.6101 135.599 11.6731 136.263 11.7991C136.939 11.9251 137.434 12.0447 137.747 12.1581V12.7251L138.109 14.7471C137.844 14.4825 137.361 14.2117 136.661 13.9345C135.973 13.6447 135.146 13.4999 134.181 13.4999C133.662 13.4999 133.227 13.6007 132.877 13.8022C132.539 13.9912 132.286 14.2873 132.117 14.6904C131.96 15.0936 131.882 15.6101 131.882 16.24C131.882 16.8574 131.972 17.3613 132.153 17.7519C132.334 18.1424 132.63 18.4259 133.04 18.6023C133.451 18.7786 133.994 18.8668 134.67 18.8668C135.527 18.8668 136.233 18.7534 136.788 18.5267C137.355 18.2873 137.735 18.0542 137.928 17.8275V18.3944L138.109 19.9062C137.88 20.1078 137.428 20.3094 136.752 20.5109C136.088 20.7125 135.249 20.8133 134.235 20.8133Z" fill="white"/>
<path d="M85 28.9775V28.5418H85.572V24.7848H85V24.3491H87.0461C87.5057 24.3491 87.8553 24.4477 88.0949 24.645C88.3393 24.8368 88.4616 25.1218 88.4616 25.5C88.4616 25.7521 88.4029 25.9659 88.2855 26.1412C88.1731 26.3166 88.024 26.4399 87.8382 26.5112C88.024 26.5605 88.178 26.6427 88.3002 26.7578C88.4273 26.8674 88.5227 27.0017 88.5862 27.1607C88.6498 27.3141 88.6816 27.484 88.6816 27.6704C88.6816 27.8896 88.6351 28.1006 88.5422 28.3034C88.4493 28.5007 88.2929 28.6624 88.0729 28.7884C87.8577 28.9145 87.5668 28.9775 87.2001 28.9775H85ZM86.1734 28.5418H87.0975C87.4446 28.5418 87.694 28.4623 87.8455 28.3034C87.9971 28.1444 88.0729 27.9252 88.0729 27.6457C88.0729 27.3881 87.9922 27.1798 87.8309 27.0209C87.6695 26.8565 87.4177 26.7743 87.0755 26.7743H86.1734V28.5418ZM86.1734 26.3221H87.0095C87.3126 26.3221 87.5302 26.2509 87.6622 26.1084C87.7991 25.9659 87.8675 25.7713 87.8675 25.5247C87.8675 25.2506 87.7893 25.0588 87.6328 24.9492C87.4764 24.8396 87.2246 24.7848 86.8775 24.7848H86.1734V26.3221Z" fill="white"/>
<path d="M90.2956 30.2847V29.7914H90.6256C90.7527 29.7914 90.8554 29.7804 90.9336 29.7585C91.0119 29.7366 91.0779 29.6873 91.1316 29.6105C91.1903 29.5338 91.2441 29.4132 91.293 29.2488L91.447 28.772H91.2196L90.1489 26.1823H89.6135V25.7466H91.1243V26.1823H90.6989L91.5643 28.3774L92.3344 26.1823H91.8357V25.7466H93.3391V26.1823H92.8697L91.799 29.1666C91.711 29.4187 91.6279 29.627 91.5497 29.7914C91.4763 29.9558 91.3737 30.0791 91.2416 30.1613C91.1096 30.2436 90.919 30.2847 90.6696 30.2847H90.2956Z" fill="white"/>
<path d="M98.9659 29.0597C98.7704 29.0597 98.587 29.0268 98.4159 28.9611C98.2497 28.8898 98.103 28.7939 97.9759 28.6733C97.8487 28.5473 97.7461 28.402 97.6678 28.2376H97.7632V28.9775H97.2865V27.4155H97.7265C97.7461 27.6402 97.8072 27.8403 97.9099 28.0156C98.0125 28.191 98.1519 28.3308 98.3279 28.4349C98.5039 28.5336 98.7092 28.5829 98.9439 28.5829C99.1982 28.5829 99.3962 28.5171 99.538 28.3856C99.6797 28.2486 99.7506 28.054 99.7506 27.8019C99.7506 27.5991 99.7189 27.4429 99.6553 27.3333C99.5917 27.2182 99.4866 27.1305 99.3399 27.0702C99.1933 27.0045 98.9977 26.9496 98.7532 26.9058L98.5772 26.8729C98.1812 26.7962 97.8634 26.6509 97.6238 26.4372C97.3843 26.218 97.2645 25.9138 97.2645 25.5247C97.2645 25.2506 97.3183 25.0204 97.4258 24.8341C97.5334 24.6478 97.6849 24.5053 97.8805 24.4066C98.0761 24.3079 98.3034 24.2586 98.5626 24.2586C98.851 24.2586 99.1053 24.3299 99.3253 24.4724C99.5453 24.6149 99.6944 24.8094 99.7726 25.0561H99.6186V24.3491H100.088V25.6562H99.6553C99.6357 25.5247 99.5942 25.3876 99.5306 25.2451C99.4671 25.1027 99.3619 24.9821 99.2153 24.8834C99.0686 24.7848 98.8608 24.7354 98.5919 24.7354C98.3377 24.7354 98.1421 24.804 98.0052 24.941C97.8683 25.0725 97.7998 25.2451 97.7998 25.4589C97.7998 25.6946 97.8756 25.8754 98.0272 26.0015C98.1788 26.1275 98.3988 26.2207 98.6872 26.281L98.8559 26.3139C99.1786 26.3742 99.4451 26.4564 99.6553 26.5605C99.8655 26.6647 100.022 26.8071 100.125 26.988C100.232 27.1689 100.286 27.4073 100.286 27.7032C100.286 27.9444 100.235 28.1691 100.132 28.3774C100.029 28.5802 99.8802 28.7446 99.6846 28.8706C99.4891 28.9967 99.2495 29.0597 98.9659 29.0597Z" fill="white"/>
<path d="M102.46 29.0679C102.162 29.0679 101.922 28.9748 101.741 28.7884C101.561 28.6021 101.47 28.3746 101.47 28.1061C101.47 27.8594 101.521 27.6621 101.624 27.5142C101.732 27.3662 101.873 27.2593 102.05 27.1935C102.226 27.1278 102.419 27.0949 102.629 27.0949C102.795 27.0949 102.964 27.1113 103.135 27.1442C103.311 27.1716 103.482 27.21 103.648 27.2593L103.428 27.3004V26.8647C103.428 26.6071 103.367 26.418 103.245 26.2974C103.123 26.1769 102.956 26.1166 102.746 26.1166C102.609 26.1166 102.448 26.144 102.262 26.1988C102.081 26.2481 101.913 26.3194 101.756 26.4125L101.595 26.0179C101.766 25.8974 101.959 25.8097 102.174 25.7549C102.389 25.6946 102.582 25.6644 102.754 25.6644C103.008 25.6644 103.225 25.711 103.406 25.8042C103.587 25.8974 103.724 26.0316 103.817 26.207C103.915 26.3769 103.964 26.577 103.964 26.8071V28.5418H104.418V28.9775H103.487L103.443 28.5171H103.648C103.458 28.7035 103.272 28.8432 103.091 28.9364C102.91 29.0241 102.7 29.0679 102.46 29.0679ZM102.541 28.6487C102.722 28.6487 102.903 28.6048 103.084 28.5171C103.264 28.4294 103.453 28.2952 103.648 28.1143L103.428 28.4103V27.4566L103.597 27.6046C103.47 27.5607 103.326 27.5251 103.164 27.4977C103.003 27.4703 102.837 27.4566 102.666 27.4566C102.494 27.4566 102.338 27.5005 102.196 27.5881C102.054 27.6704 101.983 27.832 101.983 28.0732C101.983 28.2376 102.032 28.3746 102.13 28.4842C102.228 28.5939 102.365 28.6487 102.541 28.6487Z" fill="white"/>
<path d="M105.416 28.9775V28.5418H105.988V26.1823H105.423V25.7466H105.988V25.0561C105.988 24.8588 106.017 24.6861 106.076 24.5381C106.14 24.3902 106.235 24.2778 106.362 24.2011C106.494 24.1189 106.658 24.0778 106.854 24.0778C107.054 24.0778 107.232 24.1326 107.389 24.2422C107.545 24.3518 107.633 24.5491 107.653 24.8341L107.235 24.9656C107.215 24.8231 107.179 24.7108 107.125 24.6286C107.076 24.5464 106.993 24.5053 106.876 24.5053C106.768 24.5053 106.682 24.5518 106.619 24.645C106.56 24.7327 106.531 24.8725 106.531 25.0643V25.7466H107.411V26.1823H106.531V28.5418H107.272V28.9775H105.416Z" fill="white"/>
<path d="M109.702 29.0679C109.438 29.0679 109.194 29.0022 108.969 28.8706C108.749 28.7336 108.57 28.5363 108.433 28.2787C108.296 28.0211 108.228 27.7142 108.228 27.358C108.228 26.9908 108.292 26.6838 108.419 26.4372C108.551 26.1851 108.724 25.9933 108.939 25.8617C109.154 25.7302 109.389 25.6644 109.643 25.6644C109.849 25.6644 110.052 25.7083 110.252 25.796C110.457 25.8782 110.638 25.996 110.795 26.1495L110.619 26.2235V24.6943H110.105V24.2668H111.161V28.5418H111.616V28.9775H110.619V28.55L110.787 28.5829C110.646 28.7364 110.484 28.8569 110.303 28.9446C110.127 29.0268 109.927 29.0679 109.702 29.0679ZM109.819 28.6076C110.01 28.6076 110.186 28.5665 110.347 28.4842C110.514 28.402 110.665 28.2924 110.802 28.1554L110.619 28.4349V26.2974L110.802 26.5934C110.651 26.4454 110.479 26.3303 110.289 26.2481C110.103 26.1659 109.925 26.1248 109.753 26.1248C109.568 26.1248 109.401 26.1741 109.255 26.2728C109.113 26.3714 109 26.5167 108.917 26.7085C108.834 26.8948 108.793 27.1278 108.793 27.4073C108.793 27.6649 108.839 27.8841 108.932 28.065C109.025 28.2404 109.147 28.3746 109.299 28.4678C109.455 28.561 109.629 28.6076 109.819 28.6076Z" fill="white"/>
<path d="M113.645 29.0679C113.347 29.0679 113.108 28.9748 112.927 28.7884C112.746 28.6021 112.655 28.3746 112.655 28.1061C112.655 27.8594 112.707 27.6621 112.809 27.5142C112.917 27.3662 113.059 27.2593 113.235 27.1935C113.411 27.1278 113.604 27.0949 113.814 27.0949C113.98 27.0949 114.149 27.1113 114.32 27.1442C114.496 27.1716 114.667 27.21 114.833 27.2593L114.613 27.3004V26.8647C114.613 26.6071 114.552 26.418 114.43 26.2974C114.308 26.1769 114.142 26.1166 113.931 26.1166C113.795 26.1166 113.633 26.144 113.447 26.1988C113.266 26.2481 113.098 26.3194 112.941 26.4125L112.78 26.0179C112.951 25.8974 113.144 25.8097 113.359 25.7549C113.575 25.6946 113.768 25.6644 113.939 25.6644C114.193 25.6644 114.411 25.711 114.591 25.8042C114.772 25.8974 114.909 26.0316 115.002 26.207C115.1 26.3769 115.149 26.577 115.149 26.8071V28.5418H115.604V28.9775H114.672L114.628 28.5171H114.833C114.643 28.7035 114.457 28.8432 114.276 28.9364C114.095 29.0241 113.885 29.0679 113.645 29.0679ZM113.726 28.6487C113.907 28.6487 114.088 28.6048 114.269 28.5171C114.45 28.4294 114.638 28.2952 114.833 28.1143L114.613 28.4103V27.4566L114.782 27.6046C114.655 27.5607 114.511 27.5251 114.349 27.4977C114.188 27.4703 114.022 27.4566 113.851 27.4566C113.68 27.4566 113.523 27.5005 113.381 27.5881C113.24 27.6704 113.169 27.832 113.169 28.0732C113.169 28.2376 113.218 28.3746 113.315 28.4842C113.413 28.5939 113.55 28.6487 113.726 28.6487Z" fill="white"/>
<path d="M116.557 28.9775V28.5418H117.115V26.1823H116.557V25.7466H117.65V26.7085L117.547 26.6921C117.601 26.4454 117.67 26.2509 117.753 26.1084C117.841 25.9659 117.939 25.8645 118.046 25.8042C118.159 25.7384 118.273 25.7055 118.391 25.7055C118.489 25.7055 118.586 25.7192 118.684 25.7466C118.782 25.774 118.88 25.8151 118.977 25.8699L118.845 26.4208C118.762 26.3605 118.679 26.3166 118.596 26.2892C118.513 26.2563 118.427 26.2399 118.339 26.2399C118.154 26.2399 117.992 26.3276 117.855 26.503C117.723 26.6729 117.657 26.9195 117.657 27.2429L117.65 28.5418H118.163V28.9775H116.557Z" fill="white"/>
<path d="M125.009 29.0597C124.598 29.0597 124.266 28.983 124.012 28.8295C123.762 28.6761 123.579 28.4678 123.462 28.2047C123.344 27.9362 123.286 27.6347 123.286 27.3004V24.7848H122.736V24.3491H124.43V24.7848H123.88V27.3908C123.88 27.632 123.924 27.843 124.012 28.0239C124.105 28.1992 124.237 28.3335 124.408 28.4267C124.579 28.5199 124.784 28.5665 125.024 28.5665C125.283 28.5665 125.503 28.5199 125.684 28.4267C125.865 28.3335 126.002 28.1992 126.094 28.0239C126.192 27.843 126.241 27.6293 126.241 27.3826V24.7848H125.698V24.3491H127.305V24.7848H126.747V27.358C126.747 27.7416 126.671 28.0595 126.52 28.3116C126.373 28.5582 126.17 28.7446 125.911 28.8706C125.652 28.9967 125.351 29.0597 125.009 29.0597Z" fill="white"/>
<path d="M128.235 28.9775V28.5418H128.771V24.6943H128.25V24.2668H129.313V28.5418H129.783V28.9775H128.235Z" fill="white"/>
<path d="M132.209 29.0679C131.945 29.0679 131.7 29.0022 131.475 28.8706C131.255 28.7336 131.077 28.5363 130.94 28.2787C130.803 28.0211 130.734 27.7142 130.734 27.358C130.734 26.9908 130.798 26.6838 130.925 26.4372C131.057 26.1851 131.231 25.9933 131.446 25.8617C131.661 25.7302 131.896 25.6644 132.15 25.6644C132.355 25.6644 132.558 25.7083 132.759 25.796C132.964 25.8782 133.145 25.996 133.301 26.1495L133.125 26.2235V24.6943H132.612V24.2668H133.668V28.5418H134.123V28.9775H133.125V28.55L133.294 28.5829C133.152 28.7364 132.991 28.8569 132.81 28.9446C132.634 29.0268 132.433 29.0679 132.209 29.0679ZM132.326 28.6076C132.517 28.6076 132.693 28.5665 132.854 28.4842C133.02 28.402 133.172 28.2924 133.309 28.1554L133.125 28.4349V26.2974L133.309 26.5934C133.157 26.4454 132.986 26.3303 132.795 26.2481C132.609 26.1659 132.431 26.1248 132.26 26.1248C132.074 26.1248 131.908 26.1741 131.761 26.2728C131.619 26.3714 131.507 26.5167 131.424 26.7085C131.341 26.8948 131.299 27.1278 131.299 27.4073C131.299 27.6649 131.346 27.8841 131.438 28.065C131.531 28.2404 131.654 28.3746 131.805 28.4678C131.962 28.561 132.135 28.6076 132.326 28.6076Z" fill="white"/>
<path d="M136.687 29.0762C136.384 29.0762 136.108 29.0049 135.859 28.8624C135.614 28.7199 135.418 28.5199 135.272 28.2623C135.13 28.0047 135.059 27.706 135.059 27.3662C135.059 27.0154 135.128 26.714 135.264 26.4619C135.401 26.2043 135.585 26.007 135.815 25.8699C136.044 25.7275 136.301 25.6562 136.585 25.6562C136.878 25.6562 137.13 25.7247 137.34 25.8617C137.555 25.9987 137.719 26.1933 137.831 26.4454C137.944 26.6975 138 26.9935 138 27.3333V27.4895H135.536L135.543 27.1113H137.465C137.465 26.8976 137.426 26.7167 137.347 26.5687C137.274 26.4153 137.171 26.3002 137.039 26.2235C136.907 26.1412 136.756 26.1001 136.585 26.1001C136.404 26.1001 136.24 26.1495 136.093 26.2481C135.947 26.3413 135.829 26.4783 135.741 26.6592C135.658 26.8346 135.617 27.0483 135.617 27.3004C135.617 27.569 135.661 27.8019 135.749 27.9992C135.837 28.191 135.959 28.3417 136.115 28.4514C136.277 28.5555 136.46 28.6076 136.665 28.6076C136.885 28.6076 137.088 28.5582 137.274 28.4596C137.46 28.3609 137.621 28.2376 137.758 28.0896L137.949 28.4596C137.817 28.6295 137.646 28.7747 137.435 28.8953C137.225 29.0159 136.976 29.0762 136.687 29.0762Z" fill="white"/>
</svg>
